# xmcd CD database file
#
# Track frame offsets:
#	150
#	2466
#	9822
#	29356
#	48099
#	60480
#	72726
#	96486
#	112665
#	129861
#	142975
#	157654
#	174359
#	181800
#
# Disc length: 2583 seconds
#
# Revision: 0
# Processed by: cddbd v1.5.1PL2 Copyright (c) Steve Scherf et al.
# Submitted via: CDex 1.51
#
DISCID=9a0a150e
DTITLE=Reverend Billy C. Wirtz - Sermon From Bethlehem
DYEAR=2006
DGENRE=Blues
TTITLE0=Introduction
TTITLE1=Rockin' With The Rev
TTITLE2=Sleeper Hold On Satan
TTITLE3=Cousin Cupcake's Got The Blues
TTITLE4=Do The Toleration
TTITLE5=Jerry Rig
TTITLE6=Female Problems
TTITLE7=The King and I
TTITLE8=Grandma Vs. The Crusher
TTITLE9=Pipeliner Blues
TTITLE10=What I Used To Do All Night
TTITLE11=The Visitor
TTITLE12=Last Date
TTITLE13=Whole Lot Of Shakin' Goin' On
EXTD=YEAR: 2006
EXTT0=
EXTT1=
EXTT2=
EXTT3=
EXTT4=
EXTT5=
EXTT6=
EXTT7=
EXTT8=
EXTT9=
EXTT10=
EXTT11=
EXTT12=
EXTT13=
PLAYORDER=
